<svg xmlns:dc="http://purl.org/dc/elements/1.1/" xmlns:cc="http://creativecommons.org/ns#" xmlns:rdf="http://www.w3.org/1999/02/22-rdf-syntax-ns#" xmlns:svg="http://www.w3.org/2000/svg" xmlns="http://www.w3.org/2000/svg" xmlns:sodipodi="http://sodipodi.sourceforge.net/DTD/sodipodi-0.dtd" xmlns:inkscape="http://www.inkscape.org/namespaces/inkscape" version="1.1" x="0px" y="0px" viewBox="0 0 100 125"><g transform="translate(0,-952.36218)"><path d="m 59.999974,966.36214 c -3.801829,0 -6.916269,3.0612 -7,6.8436 0.0612,3.0439 1.410911,4.6969 2.96875,5.8433 -1.18631,0.5807 -2.220039,1.5339 -2.875,2.8436 -1.910319,4.74347 -3.35764,9.80017 -5.031149,14.09257 -1.136471,2.3485 -1.13333,5.48299 0.0312,7.81209 0.46969,0.6524 1.243139,1.1432 1.8125,1.5624 l -3.90625,0 0,-19.99896 c -8e-5,-0.5235 -0.47643,-0.9998 -1,-0.9999 -7.056351,0 -14.1468,0 -21.1875,0 -0.458391,0.087 -0.820701,0.5333 -0.8125,0.9999 l 0,20.99896 c 7.9e-5,0.5235 0.47643,0.9998 1,0.9999 l 8.1875,0 0.84375,4.1874 c 0.0855,0.4481 0.51254,0.8063 0.96875,0.8125 l 0.625,0 -0.4375,1.3124 c -1.70865,0.6961 -3.775191,2.099 -5.59375,4.2812 -1.98694,2.3842 -3.59375,5.6203 -3.59375,9.4058 5e-5,0.5236 0.476419,0.9998 1,0.9999 l 3.0625,0 c 0.34794,3.5184 2.5234,6.5133 5.5625,7.9997 -5.26396,0 -10.564481,0 -15.8125,0 -0.5236,0.049 -0.95534,0.5701 -0.90625,1.0937 0.0491,0.5236 0.57015,0.9553 1.09375,0.9062 l 78,0 c 0.52831,0.01 1,-0.4717 1,-0.9999 0,-0.5284 -0.47169,-1.0075 -1,-1 l -5.6875,0 c 3.35073,-1.6177 5.6875,-5.0388 5.6875,-8.9996 0,-3.0998 -1.432609,-5.8823 -3.65625,-7.7185 l 3.15625,-1.7811 c 0.52499,-0.3026 0.640461,-1.1274 0.21875,-1.5624 -2.20317,-2.2673 -5.427239,-3.6655 -8.78125,-3.9374 -1.0083,-0.1191 -2.032251,-0.03 -2.968751,0.063 -1.968799,-4.0766 -4.097039,-8.6 -6.1875,-12.78069 l 4.0625,0.68749 c 0.562641,0.089 1.14542,-0.39929 1.15625,-0.96869 l 0,-7.9997 c -4.9e-5,-0.5236 -0.476419,-0.9999 -1,-1 -3.94331,-0.097 -8.292779,0.2588 -11.40625,0.8438 -0.40186,0.07 -0.74205,0.4106 -0.8125,0.8124 l -4.09375,-0.5937 c -1.2415,-3.18 -2.585899,-6.34657 -3.781249,-9.53127 -0.35202,-0.704 -0.712941,-1.3081 -1.09375,-1.8123 2.93315,-0.7966 5.12891,-3.4285 5.187499,-6.5935 l 2.0625,-0.125 c 0.523601,-0.033 0.970231,-0.5389 0.9375,-1.0624 -0.0327,-0.5236 -0.538899,-0.9702 -1.0625,-0.9375 l -2.1875,0.1562 c -0.723989,-3.225 -3.799679,-5.135 -6.75005,-5.1555 z m 4.968751,7.2809 c -0.149491,2.6363 -2.29324,4.7186 -4.968751,4.7186 -2.447969,0 -4.465519,-1.748 -4.90625,-4.0623 z m -5.968751,6.7185 c 0.9769,0.1605 1.65283,1.5389 2.09375,2.406 1.31312,3.3357 2.66353,6.66867 4.000001,9.99927 0.13836,0.2944 0.428669,0.5121 0.75,0.5626 2.29198,0.3192 4.582349,0.6578 6.874949,0.9686 0.96689,0.2854 1.22307,0.7664 1.375,1.5001 -0.0283,0.8988 -0.47215,1.2254 -1.03125,1.5312 l -9.4375,-1.8749 -2.78125,-4.6249 c -0.39678,-0.6243 -1.52307,-0.5057 -1.78125,0.1874 l -1.75,5.2498 -6.9375,-0.7811 c 1.734,-4.5199 3.020031,-8.7556 4.53125,-12.68707 0.924571,-1.7138 2.592691,-2.4099 4.0938,-2.437 z m 23.000001,12.03057 0,5.7811 -4.84375,-0.8124 c -0.72629,-0.1256 -1.395631,0.7799 -1.0625,1.4374 l 6.65625,13.31189 c -3.94664,3.167 -8.4676,8.645 -12.25,14.2494 l -18.531251,0 c -0.0522,-2.626 -0.303159,-4.9332 -1.03125,-6.8747 -0.820549,-2.188 -2.2913,-3.9268 -4.5,-5.0309 -2.85503,-1.2726 -6.90742,-1.6057 -10.0625,-1.1247 l 0.34375,-0.9687 17.34375,0 c 0.0519,2.6533 0.265451,5.1348 1,7.0935 0.415081,1.1067 0.98554,2.0724 1.8125,2.7812 0.82696,0.7087 1.91667,1.1249 3.125,1.1249 l 10.000001,0 c 0.298759,2e-4 0.594509,-0.1418 0.78125,-0.375 1.903329,-2.4584 3.565,-4.2227 4.875,-6.5935 0.163659,-0.3109 0.34375,-0.4895 0.34375,-1.0312 0,-6.0831 -0.77929,-10.2003 -1.5625,-13.6245 -0.19904,-0.8701 -0.412671,-1.694 -0.59375,-2.49979 1.588599,-0.6216 2.07559,-1.9347 2.25,-3.4373 -0.0558,-1.4893 -0.70227,-2.2047 -1.75,-2.9687 2.768299,-0.3389 5.46114,-0.4325 7.65625,-0.438 z m -21.750001,1.3126 1.90625,3.1561 c 0.14119,0.238 0.385351,0.4124 0.65625,0.4688 l 9.000001,1.8123 c 0.229189,0.99159 0.447759,1.98299 0.6875,3.03109 0.763829,3.3394 1.489379,7.2183 1.5,13.062 -0.57188,1.1262 -1.452031,2.2569 -2.156201,3.1874 -0.52893,-0.4216 -1.216089,-0.6619 -1.78125,-0.875 0.308141,-3.7275 0.63967,-7.4635 0.937451,-11.1866 0,-1.1666 -0.34269,-2.2801 -1.15625,-3.0936 -0.81356,-0.8135 -1.968001,-1.3539 -3.53125,-1.8749 -2.66268,-0.6099 -5.355901,-1.1911 -8.0312,-1.78089 l 1.96875,-5.906 z m -56.2499995,6.65589 0,1.9999 16.9999995,0 0,-1.9999 z m 30.2187495,6.9996 c 6.974691,0 14.7546,0 21.125,0 2.143151,0.3056 2.47264,1.1559 2.5625,3 l -23.09375,0 z m -28.2187495,1.0001 0,1.9999 18.9999995,0 0,-1.9999 z m 53.8437495,0.1562 3.0625,0.6249 -0.875,8.906 c -1.05623,0.841 -1.43004,2.1533 -1.78125,3.3124 -0.81467,0.067 -1.51246,-0.3442 -2.0625,-0.6562 -0.48554,-0.4161 -0.91508,-1.0757 -1.25,-1.9688 -0.59216,-1.579 -0.849779,-3.8399 -0.90625,-6.3747 l 2.96875,0 c 0.523601,-10e-5 0.99998,-0.4764 1,-1 0,-0.9993 0.0194,-1.9552 -0.15625,-2.8436 z m -57.8437495,5.8436 0,1.9999 22.9999995,0 0,-1.9999 z m 85.8125015,0.062 c 2.375699,0.1991 4.54074,1.1581 6.28125,2.4685 l -18.968751,10.6872 c 0.13021,-2.3338 0.493339,-4.1391 1.0625,-5.656 2.00625,-2.5456 4.057429,-4.8408 5.96875,-6.6561 2.01766,-0.7656 3.699209,-0.9182 5.656251,-0.8436 z m -42.250002,1.8123 c 1.7913,0.8956 2.82055,2.1568 3.5,3.9687 0.598321,1.5953 0.84993,3.6782 0.90625,6.1558 l -22.78125,0 c 0.26255,-2.7669 1.40237,-5.245 2.96875,-7.1247 1.693621,-2.0323 3.7617,-3.4096 5,-3.8748 2.718401,-0.6462 7.579721,-0.4024 10.40625,0.875 z m 18.4375,3.1252 5.000001,0 c 0.637029,0.1198 1.12795,0.3276 1.625,0.6251 -0.54243,0.6702 -0.980901,1.2011 -1.125,1.3749 l -7.156251,0 c 0.24251,-1.1679 0.90969,-1.7218 1.65625,-2 z m -55.9999995,1.0001 0,1.9998 16.9999995,0 0,-1.9998 z m 79.0000005,3.9997 c 1.66866,0 3.000001,1.3313 3.000001,2.9999 0,1.6686 -1.331341,2.9998 -3.000001,2.9998 -1.668671,0 -3,-1.3312 -3,-2.9998 0,-1.6686 1.331329,-2.9999 3,-2.9999 z m -13.8125,1.5938 c -0.11783,1.0393 -0.1875,2.166 -0.1875,3.406 0.0154,0.6905 0.90177,1.1892 1.5,0.8437 l 2.625,-1.4687 c 0.466389,3.3666 2.617989,6.1965 5.5625,7.6247 l -39.312501,0 c 3.0391,-1.4864 5.21456,-4.4813 5.5625,-7.9997 l 22.062501,0 c 0.335759,0 0.66538,-0.1843 0.84375,-0.4687 0.43265,-0.6489 0.88942,-1.292 1.34375,-1.9373 z m -37.031251,2.406 5.6875,0 c -0.40691,1.1721 -1.52525,1.9999 -2.84375,1.9999 -1.31851,0 -2.43684,-0.8278 -2.84375,-1.9999 z" style="text-indent:0;text-transform:none;direction:ltr;block-progression:tb;baseline-shift:baseline;color:#000000;enable-background:accumulate;" fill="#000000" fill-opacity="1" stroke="none" marker="none" visibility="visible" display="inline" overflow="visible"/></g><text x="0" y="115" fill="#000000" font-size="5px" font-weight="bold" font-family="'Helvetica Neue', Helvetica, Arial-Unicode, Arial, Sans-serif">Created by karina</text><text x="0" y="120" fill="#000000" font-size="5px" font-weight="bold" font-family="'Helvetica Neue', Helvetica, Arial-Unicode, Arial, Sans-serif">from the Noun Project</text></svg>