<svg width="17" height="22" viewBox="0 0 17 22" fill="none" xmlns="http://www.w3.org/2000/svg">
<g clip-path="url(#clip0_55_2379)">
<path d="M10.6667 0C10.033 0 9.51395 0.637755 9.5 1.42575C9.5102 2.0599 9.73515 2.40427 9.99479 2.6431C9.79707 2.76408 9.62478 2.96267 9.51562 3.23552C9.19723 4.22374 8.95601 5.27722 8.6771 6.17147C8.48768 6.66074 8.48821 7.31376 8.6823 7.79899C8.76058 7.9349 8.88949 8.03715 8.98438 8.12448H8.33334V3.95804C8.33333 3.84897 8.25393 3.74975 8.16667 3.74973C6.99061 3.74973 5.80887 3.74973 4.63542 3.74973C4.55902 3.76785 4.49864 3.86083 4.50001 3.95804V8.33281C4.50002 8.44188 4.57941 8.54111 4.66667 8.54113H6.03126L6.17188 9.4135C6.18613 9.50686 6.2573 9.58148 6.33334 9.58277H6.43751L6.36459 9.85619C6.07981 10.0012 5.73539 10.2935 5.4323 10.7481C5.10114 11.2448 4.83334 11.919 4.83334 12.7076C4.83335 12.8167 4.91274 12.9159 5.00001 12.916H5.51042C5.56841 13.649 5.93099 14.2729 6.43751 14.5826C5.56018 14.5826 4.67676 14.5826 3.80209 14.5826C3.71482 14.5928 3.64287 14.7013 3.65105 14.8104C3.65923 14.9195 3.74607 15.0094 3.83334 14.9992H16.8333C16.9214 15.0013 17 14.9009 17 14.7909C17 14.6808 16.9214 14.581 16.8333 14.5826H15.8854C16.4439 14.2455 16.8333 13.5328 16.8333 12.7076C16.8333 12.0619 16.5946 11.4822 16.224 11.0996L16.75 10.7286C16.8375 10.6655 16.8567 10.4937 16.7865 10.4031C16.4193 9.93071 15.8819 9.63942 15.3229 9.58277C15.1549 9.55796 14.9842 9.57652 14.8281 9.5959C14.5 8.74661 14.1453 7.80423 13.7969 6.93325L14.474 7.07648C14.5677 7.09503 14.6649 6.9933 14.6667 6.87467V5.20807C14.6667 5.09899 14.5873 4.99976 14.5 4.99974C13.8428 4.97953 13.1179 5.05366 12.599 5.17553C12.532 5.19012 12.4753 5.26107 12.4635 5.34478L11.7813 5.22109C11.5743 4.55859 11.3503 3.8989 11.151 3.23542C11.0924 3.08875 11.0322 2.96289 10.9688 2.85785C11.4576 2.6919 11.8236 2.14358 11.8333 1.48421L12.1771 1.45817C12.2644 1.45129 12.3388 1.3459 12.3333 1.23684C12.3279 1.12775 12.2435 1.03471 12.1563 1.04153L11.7917 1.07406C11.671 0.402191 11.1584 0.00427083 10.6667 0ZM11.4948 1.51686C11.4699 2.06609 11.1126 2.4999 10.6667 2.4999C10.2587 2.4999 9.92241 2.13573 9.84895 1.65358L11.4948 1.51686ZM10.5 2.91654C10.6628 2.94997 10.7755 3.23714 10.849 3.41779C11.0678 4.11272 11.2929 4.80709 11.5156 5.50096C11.5387 5.5623 11.5871 5.60766 11.6406 5.61818C12.0226 5.68468 12.4043 5.75522 12.7864 5.81997C12.9476 5.87943 12.9903 5.97963 13.0156 6.13249C13.0109 6.31974 12.9369 6.38778 12.8437 6.45148L11.2708 6.06089L10.8073 5.09737C10.7411 4.96731 10.5534 4.99201 10.5104 5.13641L10.2187 6.23012L9.06249 6.06738C9.35149 5.12574 9.56583 4.2433 9.8177 3.42425C9.97179 3.0672 10.2498 2.92218 10.5 2.91654ZM14.3333 5.4229V6.6273L13.526 6.45806C13.405 6.43189 13.2934 6.62053 13.349 6.75751L14.4583 9.53082C13.8006 10.1906 13.0471 11.3319 12.4167 12.4994H9.32812C9.31942 11.9524 9.27759 11.4717 9.15625 11.0672C9.01949 10.6114 8.77436 10.2491 8.40625 10.0191C7.93041 9.75399 7.25501 9.68459 6.72916 9.7848L6.78646 9.58298H9.67708C9.68573 10.1357 9.72132 10.6527 9.84375 11.0608C9.91293 11.2914 10.008 11.4925 10.1458 11.6402C10.2837 11.7879 10.4653 11.8746 10.6667 11.8746H12.3333C12.3831 11.8746 12.4324 11.845 12.4635 11.7964C12.7808 11.2843 13.0577 10.9167 13.276 10.4228C13.3033 10.358 13.3333 10.3208 13.3333 10.208C13.3333 8.94065 13.2034 8.0829 13.0729 7.36953C13.0397 7.18826 13.0041 7.01661 12.974 6.84873C13.2387 6.71923 13.3199 6.44568 13.349 6.13264C13.3397 5.82237 13.2319 5.67333 13.0573 5.51416C13.5187 5.44356 13.9675 5.42405 14.3333 5.4229ZM10.7083 5.69637L11.026 6.35389C11.0496 6.40347 11.0903 6.4398 11.1354 6.45155L12.6354 6.82911C12.6736 7.03569 12.71 7.24223 12.75 7.46058C12.8773 8.15629 12.9982 8.9644 13 10.1818C12.9047 10.4165 12.758 10.652 12.6406 10.8459C12.5525 10.758 12.4379 10.708 12.3438 10.6636C12.3951 9.88703 12.4504 9.10869 12.5 8.33304C12.5 8.09 12.4429 7.85803 12.3073 7.68855C12.1717 7.51907 11.9793 7.40648 11.7187 7.29794C11.275 7.17088 10.8261 7.04979 10.3802 6.92692L10.7083 5.69637ZM1.33333 7.08301V7.49965H4.16666V7.08301H1.33333ZM6.36979 8.54126C7.53224 8.54126 8.82889 8.54126 9.89062 8.54126C10.2478 8.60493 10.3027 8.78207 10.3177 9.16626H6.46875L6.36979 8.54126ZM1.66667 8.74961V9.16626H4.83333V8.74961H1.66667ZM10.6406 8.78215L11.151 8.91234L11.0052 10.7678C10.8292 10.943 10.7669 11.2164 10.7083 11.4578C10.5726 11.4718 10.4563 11.3861 10.3646 11.3211C10.2837 11.2344 10.2121 11.097 10.1562 10.911C10.0576 10.582 10.0146 10.111 10.0052 9.5829H10.5C10.5873 9.58288 10.6667 9.48365 10.6667 9.37457C10.6667 9.16638 10.6699 8.96723 10.6406 8.78215ZM1 9.99957V10.4162H4.83333V9.99957H1ZM15.3021 10.0125C15.698 10.054 16.0589 10.2538 16.349 10.5268L13.1875 12.7532C13.2092 12.267 13.2697 11.8909 13.3646 11.5749C13.699 11.0446 14.0408 10.5664 14.3594 10.1882C14.6956 10.0287 14.9759 9.99694 15.3021 10.0125ZM8.26041 10.39C8.55896 10.5766 8.7305 10.8394 8.84375 11.2169C8.94347 11.5492 8.9854 11.9831 8.99479 12.4993H5.19791C5.24167 11.9229 5.43164 11.4066 5.69271 11.015C5.97498 10.5916 6.31966 10.3047 6.52604 10.2077C6.97911 10.0731 7.78932 10.1239 8.26041 10.39ZM11.3333 11.0411H12.1667C12.2728 11.0661 12.3547 11.1094 12.4375 11.1714C12.3471 11.311 12.274 11.4216 12.25 11.4578H11.0573C11.0977 11.2145 11.2089 11.0991 11.3333 11.0411ZM2 11.2495V11.6661H4.83333V11.2495H2ZM15.1667 12.0827C15.4448 12.0827 15.6667 12.3601 15.6667 12.7077C15.6667 13.0553 15.4448 13.3327 15.1667 13.3327C14.8885 13.3327 14.6667 13.0553 14.6667 12.7077C14.6667 12.3601 14.8885 12.0827 15.1667 12.0827ZM12.8646 12.4148C12.8449 12.6313 12.8333 12.8661 12.8333 13.1244C12.8359 13.2682 12.9836 13.3721 13.0833 13.3001L13.5208 12.9942C13.5986 13.6956 13.9572 14.2851 14.4479 14.5826H7.89583C8.40235 14.273 8.76492 13.6491 8.82291 12.9161H12.5C12.556 12.9161 12.6109 12.8776 12.6406 12.8184C12.7127 12.6832 12.7889 12.5492 12.8646 12.4148ZM6.69271 12.9161H7.64062C7.5728 13.1602 7.38641 13.3327 7.16666 13.3327C6.94691 13.3327 6.76052 13.1602 6.69271 12.9161Z" fill="white"/>
</g>
<defs>
<clipPath id="clip0_55_2379">
<rect width="16.9333" height="21.1667" fill="white"/>
</clipPath>
</defs>
</svg>
