<svg width="17" height="22" viewBox="0 0 17 22" fill="none" xmlns="http://www.w3.org/2000/svg">
<g clip-path="url(#clip0_52_2319)">
<path d="M8.93801 8.20126V8.57901C8.72084 8.51791 8.49376 8.48171 8.2595 8.47256L7.80113 8.01419C7.75122 7.96479 7.68374 7.93728 7.61354 7.93768V7.3284C8.04457 6.94203 8.33559 6.40268 8.39644 5.79465C8.96068 5.68316 9.46717 5.20749 9.46717 4.4986C9.46723 4.4956 9.46723 4.49162 9.46717 4.48862C9.45551 4.13713 9.22999 3.8777 8.94472 3.76306C8.95409 3.71846 8.95178 3.67218 8.938 3.62872V2.38126C8.938 1.06662 7.8719 0 6.55727 0H5.49842C4.18379 0 3.11769 1.06662 3.11769 2.38126V3.68454C3.1161 3.70844 3.11757 3.73243 3.12235 3.75583C2.83125 3.86754 2.6004 4.1314 2.58853 4.48862C2.58847 4.49162 2.58847 4.49563 2.58853 4.49863C2.58853 5.20752 3.09335 5.68316 3.6572 5.79465C3.7181 6.40216 4.00921 6.94107 4.4401 7.32739V7.93665C4.37605 7.93665 4.31231 7.95446 4.25251 8.01416L3.79414 8.47198C2.24071 8.53348 1 9.80819 1 11.3767V15.6101C1.00001 15.7562 1.11846 15.8747 1.26458 15.8747C6.20349 15.8745 11.1415 15.8752 16.0802 15.8752C16.5154 15.8752 16.8755 15.5156 16.8755 15.0804V8.20123C16.875 8.05511 16.756 7.93712 16.6099 7.93768H15.0239V6.61374C15.0239 6.17858 14.6638 5.82101 14.2286 5.82101H11.5823C11.1471 5.82101 10.7896 6.17858 10.7896 6.61374V7.93768H9.1889C9.04089 7.95128 8.93787 8.06524 8.93801 8.20126ZM5.49843 0.529877H6.55728C7.58791 0.529877 8.40885 1.35084 8.40885 2.38147V3.31268C7.94979 3.1479 7.10615 2.91064 6.0276 2.91064C4.94866 2.91064 4.10431 3.14789 3.64479 3.31268V2.38147C3.64479 1.35084 4.4678 0.529877 5.49843 0.529877ZM6.0276 3.43979C7.06058 3.43979 7.84223 3.66587 8.24658 3.81393C8.15928 3.89513 8.03769 3.96896 7.87916 3.96896H4.17396C4.01574 3.96896 3.89484 3.89546 3.80758 3.81445C4.21144 3.6664 4.99326 3.43979 6.0276 3.43979ZM8.93595 4.50433C8.93309 4.91623 8.6993 5.15983 8.40885 5.25003V4.3493C8.4719 4.3121 8.52869 4.27231 8.58455 4.22787C8.74752 4.21247 8.92749 4.31696 8.93595 4.50433ZM3.64479 4.34982V5.25003C3.35506 5.15973 3.12263 4.91605 3.11976 4.50433C3.12952 4.3181 3.30872 4.2144 3.47116 4.22992C3.52657 4.27372 3.58249 4.31313 3.64479 4.34982ZM4.17396 4.49863H7.87916V5.5549C7.87915 6.58554 7.05823 7.40854 6.0276 7.40854C4.99697 7.40854 4.17396 6.58554 4.17396 5.5549V4.49863ZM11.5823 6.35022H14.2286C14.3798 6.35022 14.4948 6.46261 14.4948 6.61377V7.93771H11.3187V6.61377C11.3187 6.46261 11.4311 6.35022 11.5823 6.35022ZM7.08645 7.68655V8.29739L6.02656 9.1795L4.96926 8.29788V7.68707C5.28862 7.8462 5.64698 7.93771 6.0276 7.93771C6.40846 7.93771 6.76717 7.8459 7.08645 7.68655ZM9.46718 8.46738H16.3463V15.0804C16.3463 15.2316 16.2314 15.346 16.0802 15.346H9.73125L9.72815 15.3455C9.5784 15.3445 9.46718 15.2306 9.46718 15.0804L9.46718 8.46738ZM4.4556 8.5589L5.57078 9.48856L4.81475 9.94382L4.23287 8.78369L4.4556 8.5589ZM7.59804 8.5589L7.82077 8.78162L7.24044 9.94382L6.48287 9.48856L7.59804 8.5589ZM3.75125 9.00381L4.46697 10.4358C4.53553 10.5742 4.70757 10.6247 4.84007 10.5453L6.02656 9.83322L7.21305 10.5453C7.34556 10.6247 7.5176 10.5742 7.58616 10.4358L8.30446 9.00381C8.52584 9.01841 8.7381 9.06214 8.93801 9.13251V15.0805C8.93801 15.1736 8.95709 15.2621 8.98711 15.3456H3.38125V13.2289C3.3831 13.0795 3.26085 12.9583 3.1115 12.9612C2.96618 12.9642 2.85036 13.0836 2.85208 13.2289V13.7581H1.52916V11.3768C1.52916 10.1068 2.50323 9.08497 3.75125 9.00381ZM12.9047 9.52573C12.4695 9.52573 12.112 9.8832 12.112 10.3185C12.112 10.4456 12.1452 10.5639 12.1993 10.6709C11.4841 10.861 11.0457 11.3292 10.817 11.7866C10.6409 12.1388 10.5758 12.4735 10.5477 12.6992H10.2604C10.1133 12.6987 9.99395 12.8182 9.99479 12.9653V13.2289C9.99479 13.8106 10.4719 14.2872 11.0536 14.2872H14.7583C15.3401 14.2872 15.8172 13.8106 15.8172 13.2289V12.9653C15.818 12.8182 15.6987 12.6986 15.5516 12.6992H15.2642C15.2362 12.4735 15.171 12.1388 14.995 11.7866C14.7664 11.3294 14.3273 10.8612 13.6121 10.6709C13.6664 10.5639 13.7 10.4456 13.7 10.3185C13.7 9.8832 13.3399 9.52573 12.9047 9.52573ZM12.9047 10.0528C13.054 10.0528 13.1703 10.1692 13.1703 10.3185C13.1703 10.4677 13.054 10.5815 12.9047 10.5815C12.7554 10.5815 12.6411 10.4677 12.6411 10.3185C12.6411 10.1692 12.7554 10.0528 12.9047 10.0528ZM12.9047 11.1117C13.8748 11.1117 14.2891 11.5572 14.5222 12.0233C14.6468 12.2726 14.7036 12.5187 14.7315 12.6992H14.4927C14.1396 12.6992 14.1396 13.2289 14.4927 13.2289H15.288C15.288 13.5266 15.0561 13.758 14.7583 13.758H11.0536C10.7559 13.758 10.524 13.5266 10.524 13.2289H12.112C12.4651 13.2289 12.4651 12.6992 12.112 12.6992H11.0805C11.1083 12.5187 11.165 12.2726 11.2898 12.0233C11.5228 11.5572 11.9346 11.1117 12.9047 11.1117ZM13.1703 12.6992C12.8172 12.6992 12.8172 13.2289 13.1703 13.2289H13.4344C13.7875 13.2289 13.7875 12.6992 13.4344 12.6992H13.1703ZM1.52916 14.2877H2.85208V15.3455H1.52916V14.2877Z" fill="white"/>
</g>
<defs>
<clipPath id="clip0_52_2319">
<rect width="16.9333" height="21.1667" fill="white"/>
</clipPath>
</defs>
</svg>
