<svg width="17" height="22" viewBox="0 0 17 22" fill="none" xmlns="http://www.w3.org/2000/svg">
<g clip-path="url(#clip0_55_2374)">
<path d="M1.1911 6.76095H1.47774L1.53507 8.15906C1.49685 8.15906 1.47774 8.17993 1.43952 8.22166C1.4013 8.26339 1.38219 8.326 1.38219 8.36773L1.51596 11.6439C1.51596 11.7482 1.6115 11.8526 1.70705 11.8526L1.8026 13.7515C1.82171 13.981 1.99369 14.1688 2.2039 14.1688H5.77738C5.98758 14.1688 6.17868 13.981 6.17868 13.7515L6.27422 11.8526C6.36977 11.8526 6.46532 11.7691 6.46532 11.6439L6.59908 8.36773C6.59908 8.30513 6.57998 8.26339 6.54176 8.22166C6.52265 8.20079 6.48443 8.17993 6.44621 8.15906L6.50354 6.76095H6.79018C6.88573 6.76095 6.98128 6.67748 6.98128 6.55228C7.00038 6.2184 6.90484 5.96799 6.8284 5.80105C6.75196 5.63412 6.61819 5.52978 6.48443 5.50891C6.44621 4.69509 6.12135 4.44468 6.08313 4.42381C6.04491 4.40295 6.00669 4.38208 5.98758 4.38208H2.12746C2.10835 4.38208 2.07013 4.38208 2.05102 4.40295C2.03191 4.42382 1.55418 4.65335 1.49685 5.52978C1.26753 5.61325 1.09555 5.84279 1.03822 6.1558C1 6.30187 1 6.42707 1 6.57314C1 6.67748 1.09555 6.76095 1.1911 6.76095ZM6.21689 8.55554L6.10224 11.4144H1.89815L1.78349 8.55554H6.21689ZM5.8156 13.7098C5.8156 13.7306 5.79649 13.7306 5.77738 13.7306H2.22301C2.2039 13.7306 2.2039 13.7098 2.18479 13.7098L2.08924 11.8317H5.91114L5.8156 13.7098ZM6.08313 8.13819H1.91726L1.85993 6.76095H6.14046L6.08313 8.13819ZM2.18479 4.82029H5.94936C6.00669 4.8829 6.10224 5.09157 6.14046 5.50891H1.87904C1.91726 5.0707 2.10835 4.8829 2.18479 4.82029ZM1.4013 6.26014C1.43952 6.07233 1.55418 5.92626 1.68794 5.92626H6.33155H6.4271C6.46532 5.92626 6.50354 5.94713 6.52265 6.00973C6.56087 6.0932 6.59909 6.19753 6.61819 6.3436H1.4013C1.4013 6.32274 1.4013 6.30187 1.4013 6.26014Z" fill="white"/>
<path d="M10.6121 7.21996H14.4913C14.6824 7.21996 14.8544 7.13649 14.9691 6.96956C15.0837 6.80262 15.1219 6.61481 15.0837 6.40614C14.8353 5.11237 13.7652 4.17334 12.5422 4.17334C11.3192 4.17334 10.2872 5.11237 10.0197 6.40614C9.98148 6.61481 10.0197 6.80262 10.1344 6.96956C10.2681 7.11563 10.4401 7.21996 10.6121 7.21996ZM10.4019 6.48961C10.6121 5.38364 11.5294 4.59069 12.5613 4.59069C13.5932 4.59069 14.5104 5.38364 14.7206 6.48961C14.7398 6.57308 14.7206 6.63568 14.6824 6.69828C14.6442 6.76088 14.5869 6.78175 14.5104 6.78175H10.6121C10.5357 6.78175 10.4783 6.74002 10.4401 6.69828C10.4019 6.63568 10.3828 6.57308 10.4019 6.48961Z" fill="white"/>
<path d="M14.4913 9.57812H10.6121C10.421 9.57812 10.249 9.66159 10.1344 9.82853C10.0197 9.99547 9.98148 10.1833 10.0197 10.3919C10.2681 11.644 11.2236 11.644 12.2555 11.644C12.3511 11.644 12.4466 11.644 12.5613 11.644H12.7715C12.8861 11.644 13.0008 11.644 13.1154 11.644C14.0518 11.644 14.8735 11.5396 15.1028 10.3919C15.141 10.1833 15.1028 9.99547 14.9882 9.82853C14.8544 9.66159 14.6824 9.57812 14.4913 9.57812ZM14.7015 10.2876C14.5295 11.1849 13.8798 11.2266 12.7524 11.2058H12.5422C12.4466 11.2058 12.332 11.2058 12.2364 11.2058C11.1281 11.2058 10.5548 11.164 10.3828 10.2876C10.3637 10.2041 10.3828 10.1415 10.421 10.0789C10.4592 10.0163 10.5166 9.99547 10.593 9.99547H14.4913C14.5678 9.99547 14.6251 10.0372 14.6633 10.0789C14.7015 10.1415 14.7206 10.225 14.7015 10.2876Z" fill="white"/>
<path d="M15.0456 7.63745C14.8545 7.63745 14.7589 7.74179 14.6825 7.80439C14.6252 7.84612 14.6252 7.86699 14.5869 7.86699C14.5487 7.86699 14.5296 7.86699 14.4914 7.80439C14.415 7.74179 14.3194 7.63745 14.1283 7.63745C13.9372 7.63745 13.8417 7.74179 13.7652 7.80439C13.7079 7.84612 13.7079 7.86699 13.6697 7.86699C13.6315 7.86699 13.6124 7.86699 13.5741 7.80439C13.4977 7.74179 13.4022 7.63745 13.2111 7.63745C13.02 7.63745 12.9244 7.74179 12.848 7.80439C12.7907 7.84612 12.7907 7.86699 12.7524 7.86699C12.7142 7.86699 12.6951 7.86699 12.6569 7.80439C12.5804 7.74179 12.4849 7.63745 12.2938 7.63745C12.1027 7.63745 12.0072 7.74179 11.9307 7.80439C11.8734 7.84612 11.8734 7.86699 11.8352 7.86699C11.797 7.86699 11.7778 7.86699 11.7396 7.80439C11.6632 7.74179 11.5676 7.63745 11.3765 7.63745C11.1855 7.63745 11.0899 7.74179 11.0135 7.80439C10.9561 7.84612 10.9561 7.86699 10.9179 7.86699C10.8797 7.86699 10.8606 7.86699 10.8224 7.80439C10.7459 7.74179 10.6504 7.63745 10.4593 7.63745C10.2682 7.63745 10.1727 7.74179 10.0962 7.80439C10.0389 7.84612 10.0389 7.86699 10.0007 7.86699C9.88601 7.86699 9.80957 7.95046 9.80957 8.07566C9.80957 8.20087 9.88601 8.28434 10.0007 8.28434C10.1918 8.28434 10.2873 8.18 10.3637 8.1174C10.4211 8.07566 10.4211 8.0548 10.4593 8.0548C10.4975 8.0548 10.5166 8.0548 10.5548 8.1174C10.6313 8.18 10.7268 8.28434 10.9179 8.28434C11.109 8.28434 11.2046 8.18 11.281 8.1174C11.3383 8.07566 11.3383 8.0548 11.3765 8.0548C11.4148 8.0548 11.4339 8.0548 11.4721 8.1174C11.5485 8.18 11.6441 8.28434 11.8352 8.28434C12.0263 8.28434 12.1218 8.18 12.1983 8.1174C12.2556 8.07566 12.2556 8.0548 12.2938 8.0548C12.332 8.0548 12.3511 8.0548 12.3894 8.1174C12.4658 8.18 12.5613 8.28434 12.7524 8.28434C12.9435 8.28434 13.0391 8.18 13.1155 8.1174C13.1728 8.07566 13.1728 8.0548 13.2111 8.0548C13.2493 8.0548 13.2684 8.0548 13.3066 8.1174C13.383 8.18 13.4786 8.28434 13.6697 8.28434C13.8608 8.28434 13.9563 8.18 14.0328 8.1174C14.0901 8.07566 14.0901 8.0548 14.1283 8.0548C14.1665 8.0548 14.1856 8.0548 14.2239 8.1174C14.3003 8.18 14.3959 8.28434 14.5869 8.28434C14.778 8.28434 14.8736 8.18 14.95 8.1174C15.0074 8.07566 15.0074 8.0548 15.0456 8.0548C15.1602 8.0548 15.2367 7.97133 15.2367 7.84612C15.2367 7.72092 15.1602 7.63745 15.0456 7.63745Z" fill="white"/>
<path d="M15.0456 8.74341H9.98162C9.86697 8.74341 9.79053 8.82688 9.79053 8.95208C9.79053 9.07728 9.86697 9.16075 9.98162 9.16075H15.0456C15.1603 9.16075 15.2367 9.07728 15.2367 8.95208C15.2367 8.82688 15.1603 8.74341 15.0456 8.74341Z" fill="white"/>
<path d="M8.28052 15.88H16.6887C16.8034 15.88 16.8798 15.7965 16.8798 15.6713V4.54907C16.8798 4.17346 16.8034 3.81871 16.6696 3.48484L15.8479 1.46071V0.208673C15.8479 0.0834691 15.7714 0 15.6568 0H9.29332C9.17866 0 9.10223 0.0834691 9.10223 0.208673V1.46071L8.28052 3.48484C8.14675 3.81871 8.07031 4.17346 8.07031 4.54907V15.6713C8.08942 15.7757 8.16586 15.88 8.28052 15.88ZM9.48442 0.417346H15.4657V1.2729H9.48442V0.417346ZM8.47161 4.54907C8.47161 4.23606 8.52894 3.94392 8.6436 3.65177L9.42709 1.69025H15.523L16.3065 3.65177C16.4212 3.92305 16.4785 4.23606 16.4785 4.54907V15.4627H8.4525V4.54907H8.47161Z" fill="white"/>
</g>
<defs>
<clipPath id="clip0_55_2374">
<rect width="16.9333" height="21.1667" fill="white"/>
</clipPath>
</defs>
</svg>
